<?xml version="1.0" encoding="utf-8"?>
<!-- Generator: Adobe Illustrator 28.1.0, SVG Export Plug-In . SVG Version: 6.00 Build 0)  -->
<svg version="1.1" id="Layer_1" xmlns="http://www.w3.org/2000/svg" xmlns:xlink="http://www.w3.org/1999/xlink" x="0px" y="0px"
	 viewBox="0 0 805 600" style="enable-background:new 0 0 805 600;" xml:space="preserve">
<style type="text/css">
	.st0{fill:none;stroke:#C32B4A;stroke-width:25.8696;}
	.st1{fill:none;stroke:#6FC1A8;stroke-width:2.8744;}
	.st2{fill:none;stroke:#FCF7AE;stroke-width:8.6232;}
	.st3{fill:none;stroke:#7DC9A6;stroke-width:8.6232;}
	.st4{fill:none;stroke:#FA9F5C;stroke-width:11.4976;}
	.st5{fill:none;stroke:#F2754B;stroke-width:8.6232;}
	.st6{fill:none;stroke:#D8444B;stroke-width:2.8744;}
	.st7{fill:none;stroke:#F9F9B0;stroke-width:8.6232;}
	.st8{fill:none;stroke:#D8444B;stroke-width:57.4879;}
	.st9{fill:none;stroke:#F6834F;stroke-width:34.4928;}
	.st10{fill:none;stroke:#61B7AB;stroke-width:28.744;}
	.st11{fill:none;stroke:#E0504A;stroke-width:11.4976;}
	.st12{fill:none;stroke:#FCF7AE;stroke-width:28.744;}
	.st13{fill:none;stroke:#B71D48;stroke-width:14.372;}
	.st14{fill:none;stroke:#E75C49;stroke-width:25.8696;}
	.st15{fill:none;stroke:#F9F9B0;stroke-width:11.4976;}
	.st16{fill:none;stroke:#B71D48;stroke-width:2.8744;}
	.st17{fill:none;stroke:#9E0142;stroke-width:20.1208;}
	.st18{fill:none;stroke:#E8F6A4;stroke-width:5.7488;}
	.st19{fill:none;stroke:#D8444B;stroke-width:5.7488;}
	.st20{fill:none;stroke:#9E0142;stroke-width:5.7488;}
	.st21{fill:none;stroke:#D3ED9E;stroke-width:2.8744;}
	.st22{fill:none;stroke:#FCAD64;stroke-width:2.8744;}
	.st23{fill:none;stroke:#FDF2A9;stroke-width:8.6232;}
	.st24{fill:none;stroke:#FDF2A9;stroke-width:2.8744;}
	.st25{fill:none;stroke:#CE384B;stroke-width:2.8744;}
	.st26{fill:none;stroke:#4A9FB2;stroke-width:2.8744;}
	.st27{fill:none;stroke:#ED6849;stroke-width:11.4976;}
	.st28{fill:none;stroke:#9CD7A3;stroke-width:17.2464;}
	.st29{fill:none;stroke:#ED6849;stroke-width:2.8744;}
	.st30{fill:none;stroke:#CE384B;stroke-width:17.2464;}
	.st31{fill:none;stroke:#FEE495;stroke-width:17.2464;}
	.st32{fill:none;stroke:#D3ED9E;stroke-width:5.7488;}
	.st33{fill:none;stroke:#E75C49;stroke-width:2.8744;}
	.st34{fill:none;stroke:#B9E3A0;stroke-width:2.8744;}
	.st35{fill:none;stroke:#FCF7AE;stroke-width:5.7488;}
	.st36{fill:none;stroke:#B71D48;stroke-width:8.6232;}
	.st37{fill:none;stroke:#54ABAE;stroke-width:14.372;}
	.st38{fill:none;stroke:#C7E89F;stroke-width:2.8744;}
	.st39{fill:none;stroke:#E0504A;stroke-width:5.7488;}
	.st40{fill:none;stroke:#9CD7A3;stroke-width:5.7488;}
	.st41{fill:none;stroke:#8CD1A4;stroke-width:2.8744;}
	.st42{fill:none;stroke:#FDBA6D;stroke-width:2.8744;}
	.st43{fill:none;stroke:#9E0142;stroke-width:2.8744;}
	.st44{fill:none;stroke:#F5FAAE;stroke-width:14.372;}
	.st45{fill:none;stroke:#F6834F;stroke-width:2.8744;}
	.st46{fill:none;stroke:#DEF2A0;stroke-width:2.8744;}
	.st47{fill:none;stroke:#FED180;stroke-width:2.8744;}
	.st48{fill:none;stroke:#DEF2A0;stroke-width:5.7488;}
	.st49{fill:none;stroke:#54ABAE;stroke-width:2.8744;}
	.st50{fill:none;stroke:#EFF8A9;stroke-width:5.7488;}
	.st51{fill:none;stroke:#7DC9A6;stroke-width:2.8744;}
	.st52{fill:none;stroke:#61B7AB;stroke-width:2.8744;}
	.st53{fill:none;stroke:#FEECA0;stroke-width:2.8744;}
	.st54{fill:none;stroke:#FDC676;stroke-width:8.6232;}
	.st55{fill:none;stroke:#FDC676;stroke-width:2.8744;}
	.st56{fill:none;stroke:#AB0F45;stroke-width:5.7488;}
	.st57{fill:none;stroke:#F89155;stroke-width:5.7488;}
	.st58{fill:none;stroke:#E0504A;stroke-width:2.8744;}
	.st59{fill:none;stroke:#ABDDA2;stroke-width:2.8744;}
	.st60{fill:none;stroke:#FEDB8A;stroke-width:2.8744;}
	.st61{fill:none;stroke:#5E4FA2;stroke-width:8.6232;}
	.st62{fill:none;stroke:#5E4FA2;stroke-width:54.6135;}
	.st63{fill:none;stroke:#4B6AAE;stroke-width:11.4976;}
	.st64{fill:none;stroke:#4284B4;stroke-width:8.6232;}
	.st65{fill:none;stroke:#545CA8;stroke-width:28.744;}
	.st66{fill:none;stroke:#5E4FA2;stroke-width:22.9952;}
	.st67{fill:none;stroke:#5E4FA2;stroke-width:2.8744;}
	.st68{fill:none;stroke:#5E4FA2;stroke-width:34.4928;}
	.st69{fill:none;stroke:#545CA8;stroke-width:25.8696;}
	.st70{fill:none;stroke:#545CA8;stroke-width:20.1208;}
	.st71{fill:none;stroke:#5E4FA2;stroke-width:14.372;}
	.st72{fill:none;stroke:#5E4FA2;stroke-width:17.2464;}
	.st73{fill:none;stroke:#5E4FA2;stroke-width:5.7488;}
	.st74{fill:none;stroke:#4577B2;stroke-width:11.4976;}
	.st75{fill:none;stroke:#545CA8;stroke-width:5.7488;}
	.st76{fill:none;stroke:#545CA8;stroke-width:8.6232;}
	.st77{fill:none;stroke:#4492B4;stroke-width:2.8744;}
	.st78{fill:none;stroke:#4577B2;stroke-width:5.7488;}
	.st79{fill:none;stroke:#4492B4;stroke-width:8.6232;}
	.st80{fill:none;stroke:#4284B4;stroke-width:2.8744;}
	.st81{fill:none;stroke:#4B6AAE;stroke-width:5.7488;}
	.st82{fill:none;stroke:#4B6AAE;stroke-width:2.8744;}
	.st83{fill:none;stroke:#545CA8;stroke-width:2.8744;}
	.st84{fill:none;stroke:#545CA8;stroke-width:11.4976;}
	.st85{fill:none;stroke:#4577B2;stroke-width:2.8744;}
	.st86{font-family:'Arial-BoldMT';}
	.st87{font-size:7.2603px;}
	.st88{fill:#7B7B7B;}
	.st89{font-size:8.7124px;}
</style>
<g>
	<rect x="708.2" y="42.3" width="3.6" height="4.2"/>
	<rect x="708.2" y="50.1" width="3.6" height="2.1"/>
	<rect x="708.2" y="55.8" width="3.6" height="2.1"/>
	<rect x="708.2" y="61.6" width="3.6" height="2.1"/>
	<rect x="708.2" y="67.3" width="3.6" height="2.1"/>
	<rect x="708.2" y="73" width="3.6" height="12.5"/>
	<rect x="708.2" y="89.1" width="3.6" height="4.2"/>
	<rect x="708.2" y="96.9" width="3.6" height="16.7"/>
	<rect x="708.2" y="117.3" width="3.6" height="4.2"/>
	<rect x="708.2" y="125.1" width="3.6" height="6.3"/>
	<rect x="708.2" y="135" width="3.6" height="10.4"/>
	<rect x="708.2" y="149" width="3.6" height="2.1"/>
	<rect x="708.2" y="154.7" width="3.6" height="33.4"/>
	<rect x="708.2" y="191.8" width="3.6" height="4.2"/>
	<rect x="708.2" y="199.6" width="3.6" height="14.6"/>
	<rect x="708.2" y="217.8" width="3.6" height="23"/>
	<rect x="708.2" y="244.4" width="3.6" height="4.2"/>
	<rect x="708.2" y="252.2" width="3.6" height="54.3"/>
	<rect x="708.2" y="310.1" width="3.6" height="8.3"/>
	<rect x="708.2" y="322.1" width="3.6" height="20.9"/>
	<rect x="708.2" y="346.6" width="3.6" height="25"/>
	<rect x="708.2" y="375.2" width="3.6" height="10.4"/>
	<rect x="708.2" y="389.3" width="3.6" height="79.3"/>
	<rect x="708.2" y="472.2" width="3.6" height="8.3"/>
	<rect x="708.2" y="484.2" width="3.6" height="10.4"/>
	<rect x="708.2" y="498.3" width="3.6" height="12.5"/>
	<rect x="708.2" y="514.4" width="3.6" height="6.3"/>
	<rect x="708.2" y="524.3" width="3.6" height="48"/>
	<rect x="142.7" y="24.2" width="3.6" height="20.9"/>
	<rect x="142.7" y="48.7" width="3.6" height="4.2"/>
	<rect x="142.7" y="56.5" width="3.6" height="18.8"/>
	<rect x="142.7" y="78.9" width="3.6" height="18.8"/>
	<rect x="142.7" y="101.3" width="3.6" height="14.6"/>
	<rect x="425.4" y="82.3" width="3.6" height="18.8"/>
	<rect x="425.4" y="104.7" width="3.6" height="23"/>
	<rect x="425.4" y="131.2" width="3.6" height="39.7"/>
	<rect x="425.4" y="174.5" width="3.6" height="31.3"/>
	<rect x="425.4" y="209.5" width="3.6" height="146.1"/>
	<rect x="425.4" y="359.2" width="3.6" height="173.2"/>
	<rect x="142.7" y="119.5" width="3.6" height="52.2"/>
	<rect x="142.7" y="175.3" width="3.6" height="14.6"/>
	<rect x="142.7" y="193.6" width="3.6" height="25"/>
	<rect x="142.7" y="222.2" width="3.6" height="12.5"/>
	<rect x="142.7" y="238.4" width="3.6" height="6.3"/>
	<rect x="142.7" y="248.3" width="3.6" height="27.1"/>
	<rect x="142.7" y="279.1" width="3.6" height="4.2"/>
	<rect x="142.7" y="286.9" width="3.6" height="8.3"/>
	<rect x="142.7" y="298.8" width="3.6" height="4.2"/>
	<rect x="142.7" y="306.6" width="3.6" height="6.3"/>
	<rect x="142.7" y="316.5" width="3.6" height="8.3"/>
	<rect x="142.7" y="328.5" width="3.6" height="2.1"/>
	<rect x="142.7" y="334.2" width="3.6" height="2.1"/>
	<rect x="142.7" y="339.9" width="3.6" height="12.5"/>
	<rect x="142.7" y="356.1" width="3.6" height="4.2"/>
	<rect x="142.7" y="363.9" width="3.6" height="8.3"/>
	<rect x="142.7" y="375.9" width="3.6" height="31.3"/>
	<rect x="142.7" y="410.8" width="3.6" height="14.6"/>
	<rect x="142.7" y="429" width="3.6" height="10.4"/>
	<rect x="142.7" y="443.1" width="3.6" height="4.2"/>
	<rect x="142.7" y="450.9" width="3.6" height="4.2"/>
	<rect x="142.7" y="458.7" width="3.6" height="6.3"/>
	<rect x="142.7" y="468.6" width="3.6" height="6.3"/>
	<rect x="142.7" y="478.5" width="3.6" height="2.1"/>
	<rect x="142.7" y="484.2" width="3.6" height="2.1"/>
	<rect x="142.7" y="489.9" width="3.6" height="2.1"/>
	<rect x="142.7" y="495.7" width="3.6" height="16.7"/>
	<rect x="142.7" y="516" width="3.6" height="2.1"/>
	<rect x="142.7" y="521.7" width="3.6" height="8.3"/>
	<rect x="142.7" y="533.7" width="3.6" height="4.2"/>
	<rect x="142.7" y="541.5" width="3.6" height="23"/>
	<rect x="142.7" y="568.1" width="3.6" height="12.5"/>
	<rect x="142.7" y="584.2" width="3.6" height="6.3"/>
</g>
<g>
	<g>
		<path class="st0" d="M146.4,88.3c139.5,0,139.5,305.3,279.1,305.3"/>
	</g>
	<g>
		<path class="st1" d="M146.4,536.8c139.5,0,139.5-20.1,279.1-20.1"/>
	</g>
	<g>
		<path class="st2" d="M146.4,383.2c139.5,0,139.5-188.8,279.1-188.8"/>
	</g>
	<g>
		<path class="st3" d="M146.4,524.8c139.5,0,139.5-400.3,279.1-400.3"/>
	</g>
	<g>
		<path class="st4" d="M146.4,291c139.5,0,139.5,14.4,279.1,14.4"/>
	</g>
	<g>
		<path class="st5" d="M146.4,241.5c139.5,0,139.5,193.8,279.1,193.8"/>
	</g>
	<g>
		<path class="st6" d="M146.4,170.7c139.5,0,139.5,233.4,279.1,233.4"/>
	</g>
	<g>
		<path class="st7" d="M146.4,422.3c139.5,0,139.5,61.1,279.1,61.1"/>
	</g>
	<g>
		<path class="st8" d="M146.4,148.8c139.5,0,139.5,98.3,279.1,98.3"/>
	</g>
	<g>
		<path class="st9" d="M146.4,262.9c139.5,0,139.5,25.9,279.1,25.9"/>
	</g>
	<g>
		<path class="st10" d="M146.4,551.9c139.5,0,139.5-206.8,279.1-206.8"/>
	</g>
	<g>
		<path class="st11" d="M146.4,185.8c139.5,0,139.5,86.3,279.1,86.3"/>
	</g>
	<g>
		<path class="st12" d="M146.4,396.7c139.5,0,139.5,73,279.1,73"/>
	</g>
	<g>
		<path class="st13" d="M146.4,70c139.5,0,139.5,309,279.1,309"/>
	</g>
	<g>
		<path class="st14" d="M146.4,209.2c139.5,0,139.5,205.3,279.1,205.3"/>
	</g>
	<g>
		<path class="st15" d="M146.4,415c139.5,0,139.5-265,279-265"/>
	</g>
	<g>
		<path class="st16" d="M146.4,57.5c139.5,0,139.5,30,279.1,30"/>
	</g>
	<g>
		<path class="st17" d="M146.4,37.7c139.5,0,139.5,328.7,279.1,328.7"/>
	</g>
	<g>
		<path class="st18" d="M146.4,453c139.5,0,139.5-296.7,279.1-296.7"/>
	</g>
	<g>
		<path class="st19" d="M146.4,121.6c139.5,0,139.5-12.8,279.1-12.8"/>
	</g>
	<g>
		<path class="st20" d="M146.4,26.3c139.5,0,139.5,58.1,279.1,58.1"/>
	</g>
	<g>
		<path class="st21" d="M146.4,469.7c139.5,0,139.5-371.8,279.1-371.8"/>
	</g>
	<g>
		<path class="st19" d="M146.4,125.8c139.5,0,139.5,57.1,279.1,57.1"/>
	</g>
	<g>
		<path class="st22" d="M146.4,299.9c139.5,0,139.5-161.3,279.1-161.3"/>
	</g>
	<g>
		<path class="st23" d="M146.4,369.1c139.5,0,139.5-43.8,279.1-43.8"/>
	</g>
	<g>
		<path class="st24" d="M146.4,364.9c139.5,0,139.5-174.8,279.1-174.8"/>
	</g>
	<g>
		<path class="st25" d="M146.4,102.3c139.5,0,139.5,3.4,279.1,3.4"/>
	</g>
	<g>
		<path class="st26" d="M146.4,589.4c139.5,0,139.5-58.1,279.1-58.1"/>
	</g>
	<g>
		<path class="st27" d="M146.4,230.6c139.5,0,139.5,197.4,279.1,197.4"/>
	</g>
	<g>
		<path class="st28" d="M146.4,506.1c139.5,0,139.5,1.3,279.1,1.3"/>
	</g>
	<g>
		<path class="st29" d="M146.4,225.4c139.5,0,139.5-37.3,279.1-37.3"/>
	</g>
	<g>
		<path class="st30" d="M146.4,109.6c139.5,0,139.5,110.3,279.1,110.3"/>
	</g>
	<g>
		<path class="st31" d="M146.4,346.2c139.5,0,139.5,104.8,279.1,104.8"/>
	</g>
	<g>
		<path class="st32" d="M146.4,472.8c139.5,0,139.5-312.3,279.1-312.3"/>
	</g>
	<g>
		<path class="st22" d="M146.4,302c139.5,0,139.5,8.7,279.1,8.7"/>
	</g>
	<g>
		<path class="st33" d="M146.4,194.6c139.5,0,139.5-103,279.1-103"/>
	</g>
	<g>
		<path class="st34" d="M146.4,485.3c139.5,0,139.5-364.9,279.1-364.9"/>
	</g>
	<g>
		<path class="st1" d="M146.4,534.7c139.5,0,139.5-366.9,279.1-366.9"/>
	</g>
	<g>
		<path class="st35" d="M146.4,378c139.5,0,139.5-234.2,279.1-234.2"/>
	</g>
	<g>
		<path class="st36" d="M146.4,61.7c139.5,0,139.5,116,279.1,116"/>
	</g>
	<g>
		<path class="st37" d="M146.4,575.4c139.5,0,139.5-50.3,279.1-50.3"/>
	</g>
	<g>
		<path class="st38" d="M146.4,479.5c139.5,0,139.5-379.6,279.1-379.6"/>
	</g>
	<g>
		<path class="st39" d="M146.4,179.5c139.5,0,139.5-66.5,279.1-66.5"/>
	</g>
	<g>
		<path class="st40" d="M146.4,497.7c139.5,0,139.5-333.1,279.1-333.1"/>
	</g>
	<g>
		<path class="st41" d="M146.4,517c139.5,0,139.5-2.4,279.1-2.4"/>
	</g>
	<g>
		<path class="st42" d="M146.4,311.9c139.5,0,139.5,0.9,279.1,0.9"/>
	</g>
	<g>
		<path class="st43" d="M146.4,29.4c139.5,0,139.5,102.9,279.1,102.9"/>
	</g>
	<g>
		<path class="st44" d="M146.4,434.3c139.5,0,139.5,57.4,279.1,57.4"/>
	</g>
	<g>
		<path class="st26" d="M146.4,587.3c139.5,0,139.5-382.6,279.1-382.6"/>
	</g>
	<g>
		<path class="st26" d="M146.4,585.3c139.5,0,139.5-415.4,279.1-415.4"/>
	</g>
	<g>
		<path class="st29" d="M146.4,223.3c139.5,0,139.5-86.8,279.1-86.8"/>
	</g>
	<g>
		<path class="st45" d="M146.4,249.3c139.5,0,139.5-133.2,279.1-133.2"/>
	</g>
	<g>
		<path class="st46" d="M146.4,459.8c139.5,0,139.5-261.2,279.1-261.2"/>
	</g>
	<g>
		<path class="st47" d="M146.4,329.5c139.5,0,139.5-8.4,279.1-8.4"/>
	</g>
	<g>
		<path class="st42" d="M146.4,309.8c139.5,0,139.5-191.5,279.1-191.5"/>
	</g>
	<g>
		<path class="st48" d="M146.4,462.9c139.5,0,139.5,36.1,279.1,36.1"/>
	</g>
	<g>
		<path class="st49" d="M146.4,569.1c139.5,0,139.5-366.4,279.1-366.4"/>
	</g>
	<g>
		<path class="st50" d="M146.4,445.2c139.5,0,139.5-114.7,279.1-114.7"/>
	</g>
	<g>
		<path class="st51" d="M146.4,529c139.5,0,139.5-195.4,279.1-195.4"/>
	</g>
	<g>
		<path class="st42" d="M146.4,307.7c139.5,0,139.5-214,279.1-214"/>
	</g>
	<g>
		<path class="st33" d="M146.4,198.8c139.5,0,139.5-12.8,279.1-12.8"/>
	</g>
	<g>
		<path class="st52" d="M146.4,563.4c139.5,0,139.5-44.6,279.1-44.6"/>
	</g>
	<g>
		<path class="st53" d="M146.4,357.1c139.5,0,139.5-216.5,279.1-216.5"/>
	</g>
	<g>
		<path class="st54" d="M146.4,321.7c139.5,0,139.5-4.8,279.1-4.8"/>
	</g>
	<g>
		<path class="st55" d="M146.4,317.6c139.5,0,139.5-221.8,279.1-221.8"/>
	</g>
	<g>
		<path class="st56" d="M146.4,50.8c139.5,0,139.5,160.8,279.1,160.8"/>
	</g>
	<g>
		<path class="st57" d="M146.4,281.1c139.5,0,139.5,159.4,279.1,159.4"/>
	</g>
	<g>
		<path class="st58" d="M146.4,176.4c139.5,0,139.5-86.8,279.1-86.8"/>
	</g>
	<g>
		<path class="st33" d="M146.4,196.7c139.5,0,139.5-62.3,279.1-62.3"/>
	</g>
	<g>
		<path class="st59" d="M146.4,491c139.5,0,139.5-290.4,279.1-290.4"/>
	</g>
	<g>
		<path class="st60" d="M146.4,335.3c139.5,0,139.5,108.4,279.1,108.4"/>
	</g>
	<g>
		<path class="st53" d="M146.4,359.2c139.5,0,139.5,99.1,279.1,99.1"/>
	</g>
	<g>
		<path class="st61" d="M429.1,500c139.5,0,139.5-8.5,279.1-8.5"/>
	</g>
	<g>
		<path class="st62" d="M429.1,472.9c139.5,0,139.5-24.1,279.1-24.1"/>
	</g>
	<g>
		<path class="st63" d="M429.1,189.1c139.5,0,139.5,79.8,279.1,79.8"/>
	</g>
	<g>
		<path class="st64" d="M429.1,122.4c139.5,0,139.5,276.3,279.1,276.3"/>
	</g>
	<g>
		<path class="st65" d="M429.1,280.4c139.5,0,139.5,3.1,279.1,3.1"/>
	</g>
	<g>
		<path class="st66" d="M429.1,438.5c139.5,0,139.5-75.2,279.1-75.2"/>
	</g>
	<g>
		<path class="st67" d="M429.1,506.3c139.5,0,139.5,13.3,279.1,13.3"/>
	</g>
	<g>
		<path class="st68" d="M429.1,519.9c139.5,0,139.5,39.9,279.1,39.9"/>
	</g>
	<g>
		<path class="st69" d="M429.1,312.8c139.5,0,139.5,106.8,279.1,106.8"/>
	</g>
	<g>
		<path class="st70" d="M429.1,348.2c139.5,0,139.5,191.7,279.1,191.7"/>
	</g>
	<g>
		<path class="st71" d="M429.1,370.7c139.5,0,139.5-262.2,279.1-262.2"/>
	</g>
	<g>
		<path class="st71" d="M429.1,402c139.5,0,139.5-166.4,279.1-166.4"/>
	</g>
	<g>
		<path class="st72" d="M429.1,413.4c139.5,0,139.5-113.2,279.1-113.2"/>
	</g>
	<g>
		<path class="st73" d="M429.1,394.7c139.5,0,139.5-182.6,279.1-182.6"/>
	</g>
	<g>
		<path class="st74" d="M429.1,166.7c139.5,0,139.5,361.8,279.1,361.8"/>
	</g>
	<g>
		<path class="st75" d="M429.1,267.9c139.5,0,139.5-21.4,279.1-21.4"/>
	</g>
	<g>
		<path class="st75" d="M429.1,338.9c139.5,0,139.5,177.7,279.1,177.7"/>
	</g>
	<g>
		<path class="st76" d="M429.1,333.6c139.5,0,139.5,172,279.1,172"/>
	</g>
	<g>
		<path class="st77" d="M429.1,93.7c139.5,0,139.5,253.9,279.1,253.9"/>
	</g>
	<g>
		<path class="st73" d="M429.1,421.8c139.5,0,139.5-105.4,279.1-105.4"/>
	</g>
	<g>
		<path class="st73" d="M429.1,494.8c139.5,0,139.5-16.3,279.1-16.3"/>
	</g>
	<g>
		<path class="st67" d="M429.1,504.2c139.5,0,139.5,5.5,279.1,5.5"/>
	</g>
	<g>
		<path class="st61" d="M429.1,450c139.5,0,139.5-67.4,279.1-67.4"/>
	</g>
	<g>
		<path class="st78" d="M429.1,133.3c139.5,0,139.5-14,279.1-14"/>
	</g>
	<g>
		<path class="st64" d="M429.1,114.1c139.5,0,139.5,143.4,279.1,143.4"/>
	</g>
	<g>
		<path class="st79" d="M429.1,97.9c139.5,0,139.5,294.5,279.1,294.5"/>
	</g>
	<g>
		<path class="st77" d="M429.1,91.6c139.5,0,139.5,231.5,279.1,231.5"/>
	</g>
	<g>
		<path class="st67" d="M429.1,360.2c139.5,0,139.5-291.9,279.1-291.9"/>
	</g>
	<g>
		<path class="st80" d="M429.1,105.7c139.5,0,139.5-62.3,279.1-62.3"/>
	</g>
	<g>
		<path class="st81" d="M429.1,195.4c139.5,0,139.5,135,279.1,135"/>
	</g>
	<g>
		<path class="st74" d="M429.1,141.7c139.5,0,139.5,21.4,279.1,21.4"/>
	</g>
	<g>
		<path class="st70" d="M429.1,241.8c139.5,0,139.5-65.2,279.1-65.2"/>
	</g>
	<g>
		<path class="st82" d="M429.1,200.6c139.5,0,139.5,177.8,279.1,177.8"/>
	</g>
	<g>
		<path class="st80" d="M429.1,109.9c139.5,0,139.5,48,279.1,48"/>
	</g>
	<g>
		<path class="st76" d="M429.1,225.1c139.5,0,139.5-125,279.1-125"/>
	</g>
	<g>
		<path class="st78" d="M429.1,158.4c139.5,0,139.5,245.5,279.1,245.5"/>
	</g>
	<g>
		<path class="st77" d="M429.1,83.3c139.5,0,139.5,6.9,279.1,6.9"/>
	</g>
	<g>
		<path class="st80" d="M429.1,126.6c139.5,0,139.5,372.7,279.1,372.7"/>
	</g>
	<g>
		<path class="st81" d="M429.1,182.9c139.5,0,139.5,37,279.1,37"/>
	</g>
	<g>
		<path class="st73" d="M429.1,388.4c139.5,0,139.5-202.3,279.1-202.3"/>
	</g>
	<g>
		<path class="st83" d="M429.1,229.3c139.5,0,139.5-103.2,279.1-103.2"/>
	</g>
	<g>
		<path class="st84" d="M429.1,253.3c139.5,0,139.5-47.5,279.1-47.5"/>
	</g>
	<g>
		<path class="st75" d="M429.1,328.4c139.5,0,139.5,157.9,279.1,157.9"/>
	</g>
	<g>
		<path class="st78" d="M429.1,150c139.5,0,139.5,112.6,279.1,112.6"/>
	</g>
	<g>
		<path class="st82" d="M429.1,198.5c139.5,0,139.5,151.2,279.1,151.2"/>
	</g>
	<g>
		<path class="st81" d="M429.1,203.7c139.5,0,139.5,204.3,279.1,204.3"/>
	</g>
	<g>
		<path class="st85" d="M429.1,136.5c139.5,0,139.5-0.5,279.1-0.5"/>
	</g>
	<g>
		<path class="st84" d="M429.1,261.6c139.5,0,139.5-35.5,279.1-35.5"/>
	</g>
	<g>
		<path class="st78" d="M429.1,154.2c139.5,0,139.5,172,279.1,172"/>
	</g>
	<g>
		<path class="st61" d="M429.1,427c139.5,0,139.5-87.2,279.1-87.2"/>
	</g>
	<g>
		<path class="st75" d="M429.1,297.1c139.5,0,139.5,37.5,279.1,37.5"/>
	</g>
	<g>
		<path class="st82" d="M429.1,179.7c139.5,0,139.5-11.4,279.1-11.4"/>
	</g>
	<g>
		<path class="st85" d="M429.1,146.9c139.5,0,139.5,53.7,279.1,53.7"/>
	</g>
	<g>
		<path class="st80" d="M429.1,107.8c139.5,0,139.5-33.8,279.1-33.8"/>
	</g>
	<g>
		<path class="st75" d="M429.1,292.9c139.5,0,139.5,19.2,279.1,19.2"/>
	</g>
	<g>
		<path class="st82" d="M429.1,175.6c139.5,0,139.5-130.1,279.1-130.1"/>
	</g>
	<g>
		<path class="st73" d="M429.1,382.1c139.5,0,139.5-238.8,279.1-238.8"/>
	</g>
	<g>
		<path class="st83" d="M429.1,212.6c139.5,0,139.5-155.7,279.1-155.7"/>
	</g>
	<g>
		<path class="st83" d="M429.1,214.7c139.5,0,139.5-152.1,279.1-152.1"/>
	</g>
	<g>
		<path class="st80" d="M429.1,118.2c139.5,0,139.5,258.1,279.1,258.1"/>
	</g>
	<g>
		<path class="st67" d="M429.1,391.5c139.5,0,139.5-196.6,279.1-196.6"/>
	</g>
	<g>
		<path class="st76" d="M429.1,218.9c139.5,0,139.5-138.6,279.1-138.6"/>
	</g>
	<g>
		<path class="st73" d="M429.1,378c139.5,0,139.5-248.7,279.1-248.7"/>
	</g>
	<g>
		<path class="st67" d="M429.1,364.4c139.5,0,139.5-272.1,279.1-272.1"/>
	</g>
	<g>
		<path class="st77" d="M429.1,89.6c139.5,0,139.5,163.7,279.1,163.7"/>
	</g>
	<g>
		<path class="st75" d="M429.1,301.3c139.5,0,139.5,51.5,279.1,51.5"/>
	</g>
	<g>
		<path class="st67" d="M429.1,362.3c139.5,0,139.5-277.8,279.1-277.8"/>
	</g>
	<g>
		<path class="st75" d="M429.1,232.4c139.5,0,139.5-93.3,279.1-93.3"/>
	</g>
	<g>
		<path class="st77" d="M429.1,87.5c139.5,0,139.5,105.3,279.1,105.3"/>
	</g>
	<g>
		<path class="st77" d="M429.1,85.4c139.5,0,139.5,70.4,279.1,70.4"/>
	</g>
	<g>
		<path class="st85" d="M429.1,161.5c139.5,0,139.5,339.9,279.1,339.9"/>
	</g>
	<g>
		<path class="st75" d="M429.1,324.2c139.5,0,139.5,150.1,279.1,150.1"/>
	</g>
	<g>
		<path class="st83" d="M429.1,210.5c139.5,0,139.5-159.3,279.1-159.3"/>
	</g>
	<g>
		<path class="st82" d="M429.1,177.7c139.5,0,139.5-101.5,279.1-101.5"/>
	</g>
	<g>
		<path class="st67" d="M429.1,385.3c139.5,0,139.5-235.2,279.1-235.2"/>
	</g>
</g>
<text transform="matrix(1.0049 0 0 1 719.833 44.0283)" class="st86 st87">4</text>
<text transform="matrix(1.0049 0 0 1 713.748 50.7891)" class="st86 st87">4.2</text>
<text transform="matrix(1.0049 0 0 1 713.748 56.5059)" class="st86 st87">4.3</text>
<text transform="matrix(1.0049 0 0 1 713.748 62.2236)" class="st86 st87">4.4</text>
<text transform="matrix(1.0049 0 0 1 713.748 67.9404)" class="st86 st87">4.7</text>
<text transform="matrix(1.0049 0 0 1 713.748 78.875)" class="st86 st87">4.8</text>
<text transform="matrix(1.0049 0 0 1 713.748 90.853)" class="st86 st87">4.9</text>
<text transform="matrix(1.0049 0 0 1 719.833 104.9189)" class="st86 st87">5</text>
<text transform="matrix(1.0049 0 0 1 713.748 118.9819)" class="st86 st87">5.1</text>
<text transform="matrix(1.0049 0 0 1 713.748 127.8301)" class="st86 st87">5.2</text>
<text transform="matrix(1.0049 0 0 1 713.748 139.8076)" class="st86 st87">5.3</text>
<text transform="matrix(1.0049 0 0 1 713.748 149.6982)" class="st86 st87">5.4</text>
<text transform="matrix(1.0049 0 0 1 713.748 171.0669)" class="st86 st87">5.5</text>
<text transform="matrix(1.0049 0 0 1 713.748 193.4805)" class="st86 st87">5.6</text>
<text transform="matrix(1.0049 0 0 1 713.748 206.501)" class="st86 st87">5.7</text>
<text transform="matrix(1.0049 0 0 1 713.748 228.9131)" class="st86 st87">5.8</text>
<text transform="matrix(1.0049 0 0 1 713.748 246.1074)" class="st86 st87">5.9</text>
<text transform="matrix(1.0049 0 0 1 719.833 278.9551)" class="st86 st87">6</text>
<text transform="matrix(1.0049 0 0 1 713.748 313.8887)" class="st86 st87">6.1</text>
<text transform="matrix(1.0049 0 0 1 713.748 332.127)" class="st86 st87">6.2</text>
<text transform="matrix(1.0049 0 0 1 713.748 358.7129)" class="st86 st87">6.3</text>
<text transform="matrix(1.0049 0 0 1 713.748 380.083)" class="st86 st87">6.4</text>
<text transform="matrix(1.0049 0 0 1 713.748 428.5811)" class="st86 st87">6.5</text>
<text transform="matrix(1.0049 0 0 1 713.748 476.0371)" class="st86 st87">6.6</text>
<text transform="matrix(1.0049 0 0 1 713.748 489.0586)" class="st86 st87">6.7</text>
<text transform="matrix(1.0049 0 0 1 713.748 504.165)" class="st86 st87">6.8</text>
<text transform="matrix(1.0049 0 0 1 713.748 517.1865)" class="st86 st87">6.9</text>
<text transform="matrix(1.0049 0 0 1 719.833 547.9463)" class="st86 st87">7</text>
<text transform="matrix(1.0049 0 0 1 432.0156 91.2661)" class="st86 st87">Diseñador</text>
<text transform="matrix(1.0049 0 0 1 432.0156 115.7646)" class="st86 st87">Diseñador con mención Industrial y Servicios</text>
<text transform="matrix(1.0049 0 0 1 432.0156 150.6982)" class="st86 st87">Diseñador con mención en Visualidad y Medios</text>
<text transform="matrix(1.0049 0 0 1 432.0156 189.8057)" class="st86 st87">Diseñadora</text>
<text transform="matrix(1.0049 0 0 1 432.0156 282.1289)" class="st86 st87">Diseñadora con mención Industrial y Servicios</text>
<text transform="matrix(1.0049 0 0 1 432.0156 445.4082)" class="st86 st87">Diseñadora con mención en Visualidad y Medios</text>
<text transform="matrix(1.0049 0 0 1 68.1406 37.2256)" class="st86 st87">Abud Carrillo, Jenny</text>
<text transform="matrix(1.0049 0 0 1 42.1743 52.377)" class="st86 st87">Benavides Bermúdez, Paola</text>
<text transform="matrix(1.0049 0 0 1 45.4414 67.4863)" class="st86 st87">Castillo Espinoza, Eduardo</text>
<text transform="matrix(1.0049 0 0 1 60.4282 89.8975)" class="st86 st87">Cortez Orellana, Felipe</text>
<text transform="matrix(1.0049 0 0 1 45.021 111.2227)" class="st86 st87">De la Sotta Lazzerini, Paola</text>
<text transform="matrix(1.0049 0 0 1 42.2031 146.2441)" class="st86 st87">Domínguez González, Pablo</text>
<text transform="matrix(1.0049 0 0 1 50.3003 184.2646)" class="st86 st87">Donoso Cisternas, Sergio</text>
<text transform="matrix(1.0049 0 0 1 43.4141 207.7207)" class="st86 st87">Dueñas Santander, Rodrigo</text>
<text transform="matrix(1.0049 0 0 1 57.165 231.1318)" class="st86 st87">Gatica Ramírez, Pamela</text>
<text transform="matrix(1.0049 0 0 1 63.271 243.1543)" class="st86 st87">Gómez Moya, Cristián</text>
<text transform="matrix(1.0049 0 0 1 59.2134 263.479)" class="st86 st87">Jacob Dazarola, Rubén</text>
<text transform="matrix(1.0049 0 0 1 66.5059 282.7612)" class="st86 st87">Jove Avilés, Trinidad</text>
<text transform="matrix(1.0049 0 0 1 72.5977 292.6523)" class="st86 st87">Lares López, Lorna</text>
<text transform="matrix(1.0049 0 0 1 51.5225 302.5439)" class="st86 st87">Lepe Muñoz, Juan Carlos</text>
<text transform="matrix(1.0049 0 0 1 35.7124 311.3906)" class="st86 st87">Maldonado de la Fuente, Felix</text>
<text transform="matrix(1.0049 0 0 1 56.3887 322.3252)" class="st86 st87">Marín Pacheco, Antonio</text>
<text transform="matrix(1.0049 0 0 1 65.3052 331.1729)" class="st86 st87">Molina Oyarzún, Raúl</text>
<text transform="matrix(1.0049 0 0 1 63.2783 337.8887)" class="st86 st87">Mora Briones, Alfredo</text>
<text transform="matrix(1.0049 0 0 1 49.4736 347.8232)" class="st86 st87">Morales Mujica, María Paz</text>
<text transform="matrix(1.0049 0 0 1 63.2568 359.8018)" class="st86 st87">Méndez Olivares, Iván</text>
<text transform="matrix(1.0049 0 0 1 59.627 369.6924)" class="st86 st87">Nuñez Gutiérrez, Pablo</text>
<text transform="matrix(1.0049 0 0 1 68.9351 393.1484)" class="st86 st87">Ode Saleh, Verónica</text>
<text transform="matrix(1.0049 0 0 1 61.6431 419.7354)" class="st86 st87">Osses Flores, Roberto</text>
<text transform="matrix(1.0049 0 0 1 39.752 435.8867)" class="st86 st87">Pagueguy Fenner, Sebastián</text>
<text transform="matrix(1.0049 0 0 1 68.1157 446.8203)" class="st86 st87">Perea Morales, René</text>
<text transform="matrix(1.0049 0 0 1 73.8193 454.624)" class="st86 st87">Perelli Soto, Bruno</text>
<text transform="matrix(1.0049 0 0 1 27.5898 463.4717)" class="st86 st87">Pradenas Guentherodt, Gabriela</text>
<text transform="matrix(1.0049 0 0 1 72.5869 473.3623)" class="st86 st87">Reyes León, Daniel</text>
<text transform="matrix(1.0049 0 0 1 63.6665 480.167)" class="st86 st87">Ruiz Balart, Macarena</text>
<text transform="matrix(1.0049 0 0 1 51.1123 486.8838)" class="st86 st87">Santibañez Boric, Mónica</text>
<text transform="matrix(1.0049 0 0 1 55.5654 493.5996)" class="st86 st87">Silva Roquefort, Rebeca</text>
<text transform="matrix(1.0049 0 0 1 57.2114 505.6221)" class="st86 st87">Soto Calquín, Leonardo</text>
<text transform="matrix(1.0049 0 0 1 65.6973 518.6436)" class="st86 st87">Stange Marcus, Hans</text>
<text transform="matrix(1.0049 0 0 1 62.854 527.4902)" class="st86 st87">Tapia Reyes, Mauricio</text>
<text transform="matrix(1.0049 0 0 1 58.4014 538.3818)" class="st86 st87">Vico Sánchez, Mauricio</text>
<text transform="matrix(1.0049 0 0 1 51.0981 554.5771)" class="st86 st87">Wechsler Pizarro, Andrea</text>
<text transform="matrix(1.0049 0 0 1 62.8613 575.9453)" class="st86 st87">Young Araya, Mariana</text>
<text transform="matrix(1.0049 0 0 1 37.7393 588.9678)" class="st86 st87">Zorzano Betancourt, Osvaldo</text>
<text transform="matrix(1.0049 0 0 1 670.8242 29.6006)" class="st88 st86 st89">nota_anteproyecto</text>
<text transform="matrix(1.0049 0 0 1 122.1831 17.3379)" class="st88 st86 st89">profe_guia</text>
<text transform="matrix(1.0049 0 0 1 390.5493 69.5332)" class="st88 st86 st89">titulo_profesional</text>
</svg>
